<svg xmlns="http://www.w3.org/2000/svg" width="248.299" height="283.271" viewBox="0 0 248.299 283.271">
  <g id="Raggruppa_10" data-name="Raggruppa 10" transform="translate(0)">
    <path id="Tracciato_67" data-name="Tracciato 67" d="M577.67,745.644l-.316-7.107-.1-.052a4.367,4.367,0,0,0-6.187,5.109c1.018,3.452,1.7,7.173,3.565,10.194a13.806,13.806,0,0,0,10.124,6.38l4.3,2.635a23.135,23.135,0,0,0-4.876-18.747,22.346,22.346,0,0,0-4.107-3.816C579.047,742.956,577.67,745.644,577.67,745.644Z" transform="translate(-458.653 -479.9)" fill="#f2f2f2"/>
    <path id="Tracciato_68" data-name="Tracciato 68" d="M373.816,293.34c-8.284-8.544-20.289-13.443-32.937-13.443h-.488a47.032,47.032,0,0,1-23.709-6.4l-.749-.436.6-.621a45.842,45.842,0,0,0,8.084-11.446,13.862,13.862,0,0,1-11.187,3.614,14.194,14.194,0,0,1-10.42-6.674c-4.42-7.172-9.69-17.349-9.69-25.1a47.175,47.175,0,0,1,15.391-34.811,29.376,29.376,0,0,0,9.7-21.9l0-.587a66.645,66.645,0,0,1,1.98-16.132l.131-.523.548.019a45.041,45.041,0,0,0,10.532-.882,35.55,35.55,0,0,1-9.445-2.512l-.589-.238.2-.6c13.789-8.538,44.914-4.116,62.98-45.45,14.649-33.516,66.336,29.752,66.336,66.323,0,3.732-3.693,8.663-.928,11.129,29.885,26.662,9.265,43.783,2.764,61.01-1.543,4.087,1.8,8.575,1.8,13,0,.75-.019,1.525-.057,2.3l-.058,1.195-1-.663a33,33,0,0,1-5.45-4.471,28.764,28.764,0,0,1-.912,24.832c-3.132,5.911-6.162,10.143-9.006,12.577a47.022,47.022,0,0,1-64.43-3.1Z" transform="translate(-293.324 -99.719)" fill="#e6e6e6"/>
    <path id="Tracciato_69" data-name="Tracciato 69" d="M556.178,542.968a.846.846,0,0,0,.837-.727c.036-.253,3.559-25.658.395-59.422-2.922-31.182-12.3-76.095-40.41-112.981a.847.847,0,0,0-1.347,1.026c27.864,36.568,37.17,81.151,40.071,112.113,3.145,33.568-.35,58.774-.385,59.025a.847.847,0,0,0,.839.966Z" transform="translate(-425.651 -260.417)" fill="#3f3d56"/>
    <path id="Tracciato_70" data-name="Tracciato 70" d="M435.8,467.969a.846.846,0,0,0,.5-1.531,116.666,116.666,0,0,0-25.756-13.111c-14.21-5.2-35.818-9.919-58.063-2.839a.846.846,0,0,0,.513,1.613c21.79-6.934,43.006-2.3,56.968,2.816A114.749,114.749,0,0,1,435.3,467.807.843.843,0,0,0,435.8,467.969Z" transform="translate(-328.207 -306.518)" fill="#3f3d56"/>
    <path id="Tracciato_71" data-name="Tracciato 71" d="M617.616,259.035a.846.846,0,0,0-1.491-.607,116.665,116.665,0,0,0-14.932,24.745c-6.212,13.8-12.472,35.011-7.013,57.708a.846.846,0,0,0,1.646-.4c-5.347-22.232.807-43.06,6.911-56.617a114.745,114.745,0,0,1,14.682-24.348A.844.844,0,0,0,617.616,259.035Z" transform="translate(-471.284 -194.075)" fill="#3f3d56"/>
    <path id="Tracciato_72" data-name="Tracciato 72" d="M652.234,352.745c.714,5.762,4.707,10.513,10.513,10.513a10.513,10.513,0,0,0,10.513-10.513c0-5.806-4.732-9.976-10.513-10.513C656.612,341.663,651.317,345.348,652.234,352.745Z" transform="translate(-507.047 -244.138)" fill="#2f2e41"/>
    <path id="Tracciato_73" data-name="Tracciato 73" d="M397.1,664.579h4l1.9-15.442H397.1Z" transform="translate(-236.535 -386.659)" fill="#ffb6b6"/>
    <path id="Tracciato_74" data-name="Tracciato 74" d="M690.08,787.574h12.311v-.156a4.792,4.792,0,0,0-4.792-4.792h0l-2.249-1.706-4.2,1.706H690.08Z" transform="translate(-529.652 -505.477)" fill="#2f2e41"/>
    <path id="Tracciato_75" data-name="Tracciato 75" d="M358.1,664.579h4l1.9-15.442H358.1Z" transform="translate(-213.304 -386.659)" fill="#ffb6b6"/>
    <path id="Tracciato_76" data-name="Tracciato 76" d="M651.08,787.574h12.311v-.156a4.792,4.792,0,0,0-4.792-4.792h0l-2.249-1.706-4.2,1.706H651.08Z" transform="translate(-506.422 -505.477)" fill="#2f2e41"/>
    <path id="Tracciato_77" data-name="Tracciato 77" d="M676.383,543.194l2.831,9.7L675.879,594s1.717,2.57.5,2.57-2.768.57-1.789,2.1-2.37,7.044-2.37,7.044l-4.738,29.265-6.037-.089s-3.069-1.71-1.347-3.439,2.935-1.729,1.318-3.346-1.617-1.13-1.617-2.385-1.62-16.585,2.222-22.465l-1.158-23.976L658.142,602.8l-5.616,31.374-5.815-.048s-2.686-2.589-2.681-4.505,1.659-2.076.428-3.209-1.232-18.546,2.408-28.225c0,0,2.059-5.408,0-7.261s0-3.973,0-3.973,3.268-1.181,0-4.585-.018-27.475-.018-27.475-3.576-9.717.046-13.537S676.383,543.194,676.383,543.194Z" transform="translate(-502.036 -361.991)" fill="#2f2e41"/>
    <path id="Tracciato_78" data-name="Tracciato 78" d="M596.845,571.228l5.05-12.2,3.979,2.21-2.4,12.415a4.421,4.421,0,1,1-6.626-2.421Z" transform="translate(-472.911 -373.304)" fill="#ffb6b6"/>
    <path id="Tracciato_79" data-name="Tracciato 79" d="M793.11,337.891l-7.684,10.743-3.375-3.054,5.153-11.547a4.421,4.421,0,1,1,5.905,3.859Z" transform="translate(-584.435 -236.474)" fill="#ffb6b6"/>
    <path id="Tracciato_80" data-name="Tracciato 80" d="M652.579,431.767c4.984,7.73-20.068,17.541-29.681,13.6-1.683-.69-7.473-2.968-3.516-6.126s-.459-3.6-.563-5.658c-.07-1.374.994-4.39-.116-4.26s-2.41-1.772.008-2.589.026-1.564.047-2.34c.231-8.473,6.732-21.951,6.732-21.951l-11.714,29.945s.087,5.181-1.407,3.6-1.385,3.541-1.385,3.541-2.221,1.55-.944,2.413-1.375,3.515-1.375,3.515l-6.189-.442s.1-4.6,1.154-5.615a2.728,2.728,0,0,0,.538-2.617s2.751-2.436.907-4.413c-2.372-2.543,6.277-45.5,9.262-45.076a11.37,11.37,0,0,1,8.119-8.674l6.685-1.841,1.187-4.71h9.413l1.64,3.095,7.156,3.229c1.348-1.9,2.355-3.906,7.875-4.556,0,0,14.873-13.532,14.147-14.589s1.579-3.53,1.579-3.53,1.969-.644.858-.989.989-1.14.989-1.14,1.945-.511,1.028-1.184,3.061-1.115,3.061-1.115l5.162,4.212-1.043,1.769s.636,2.409-.194,1.53-.987,1.673-.987,1.673a4.793,4.793,0,0,1-2.938,3.637c-2.514.842-4.421,8.842-4.421,8.842a58.692,58.692,0,0,1-21.22,17.684C655.663,394.346,652.579,431.767,652.579,431.767Z" transform="translate(-477.47 -249.568)" fill="#ec5939"/>
    <circle id="Ellisse_5" data-name="Ellisse 5" cx="9.323" cy="9.323" r="9.323" transform="translate(147.539 101.099)" fill="#ffb6b6"/>
    <path id="Tracciato_81" data-name="Tracciato 81" d="M656.8,354.806c.3,2.026,2.022,4.852,1.617,4.852s-3.279-8.351-.4-8.9c2.085-.395,2.551-.048,4.5-.894l-.275.259c1.29.938,3.085.36,4.557-.251s3.267-1.185,4.561-.251a7.27,7.27,0,0,1,1.662,2.471c.505.869,1.44,1.69,2.4,1.423a1.9,1.9,0,0,0,1.213-1.88c0-.8-1.047-1.562-.7-2.281,1.04-2.129.1-3.58-2.163-4.581q-1.237-.188-2.475-.384a7.019,7.019,0,0,1,1.553-1.561,3.548,3.548,0,0,0-1.253-1.605,3.935,3.935,0,0,0-2.24-.323l-5.115.267a9.023,9.023,0,0,0-3.7.72,7.29,7.29,0,0,0-3,3.57C656.046,348.688,656.285,351.284,656.8,354.806Z" transform="translate(-509.594 -243.368)" fill="#2f2e41"/>
    <path id="Tracciato_82" data-name="Tracciato 82" d="M560.767,798.555l91.686.124a.481.481,0,0,0,0-.963l-91.686-.124a.481.481,0,0,0,0,.963Z" transform="translate(-452.34 -515.408)" fill="#cacaca"/>
    <ellipse id="Ellisse_6" data-name="Ellisse 6" cx="2.126" cy="3.056" rx="2.126" ry="3.056" transform="matrix(0.144, -0.99, 0.99, 0.144, 68.913, 242.403)" fill="#e6e6e6"/>
    <ellipse id="Ellisse_7" data-name="Ellisse 7" cx="2.126" cy="3.056" rx="2.126" ry="3.056" transform="matrix(0.144, -0.99, 0.99, 0.144, 88.795, 240.463)" fill="#3f3d56"/>
    <ellipse id="Ellisse_8" data-name="Ellisse 8" cx="2.126" cy="3.056" rx="2.126" ry="3.056" transform="matrix(0.144, -0.99, 0.99, 0.144, 63.468, 226.306)" fill="#ff6584"/>
    <ellipse id="Ellisse_9" data-name="Ellisse 9" cx="1.931" cy="1.343" rx="1.931" ry="1.343" transform="matrix(0.008, -1, 1, 0.008, 58.481, 220.4)" fill="#e6e6e6"/>
    <ellipse id="Ellisse_10" data-name="Ellisse 10" cx="1.931" cy="1.343" rx="1.931" ry="1.343" transform="matrix(0.008, -1, 1, 0.008, 55.551, 208.119)" fill="#3f3d56"/>
    <ellipse id="Ellisse_11" data-name="Ellisse 11" cx="1.931" cy="1.343" rx="1.931" ry="1.343" transform="matrix(0.008, -1, 1, 0.008, 78.334, 229.733)" fill="#e6e6e6"/>
    <ellipse id="Ellisse_12" data-name="Ellisse 12" cx="1.931" cy="1.343" rx="1.931" ry="1.343" transform="matrix(0.008, -1, 1, 0.008, 68.726, 234.53)" fill="#ff6584"/>
    <ellipse id="Ellisse_13" data-name="Ellisse 13" cx="1.931" cy="1.343" rx="1.931" ry="1.343" transform="matrix(0.008, -1, 1, 0.008, 82.101, 243.396)" fill="#3f3d56"/>
    <ellipse id="Ellisse_14" data-name="Ellisse 14" cx="2.126" cy="3.056" rx="2.126" ry="3.056" transform="matrix(0.144, -0.99, 0.99, 0.144, 221.757, 180.133)" fill="#e6e6e6"/>
    <ellipse id="Ellisse_15" data-name="Ellisse 15" cx="2.126" cy="3.056" rx="2.126" ry="3.056" transform="matrix(0.144, -0.99, 0.99, 0.144, 241.639, 178.193)" fill="#3f3d56"/>
    <ellipse id="Ellisse_16" data-name="Ellisse 16" cx="2.126" cy="3.056" rx="2.126" ry="3.056" transform="matrix(0.144, -0.99, 0.99, 0.144, 216.312, 164.037)" fill="#ff6584"/>
    <ellipse id="Ellisse_17" data-name="Ellisse 17" cx="1.931" cy="1.343" rx="1.931" ry="1.343" transform="matrix(0.008, -1, 1, 0.008, 211.325, 158.131)" fill="#e6e6e6"/>
    <ellipse id="Ellisse_18" data-name="Ellisse 18" cx="1.931" cy="1.343" rx="1.931" ry="1.343" transform="matrix(0.008, -1, 1, 0.008, 208.395, 145.85)" fill="#3f3d56"/>
    <ellipse id="Ellisse_19" data-name="Ellisse 19" cx="1.931" cy="1.343" rx="1.931" ry="1.343" transform="matrix(0.008, -1, 1, 0.008, 231.178, 167.463)" fill="#e6e6e6"/>
    <ellipse id="Ellisse_20" data-name="Ellisse 20" cx="1.931" cy="1.343" rx="1.931" ry="1.343" transform="matrix(0.008, -1, 1, 0.008, 221.57, 172.26)" fill="#ff6584"/>
    <ellipse id="Ellisse_21" data-name="Ellisse 21" cx="1.931" cy="1.343" rx="1.931" ry="1.343" transform="matrix(0.008, -1, 1, 0.008, 234.945, 181.127)" fill="#3f3d56"/>
    <ellipse id="Ellisse_22" data-name="Ellisse 22" cx="2.126" cy="3.056" rx="2.126" ry="3.056" transform="matrix(0.144, -0.99, 0.99, 0.144, 147.761, 64.894)" fill="#fff"/>
    <ellipse id="Ellisse_23" data-name="Ellisse 23" cx="2.126" cy="3.056" rx="2.126" ry="3.056" transform="matrix(0.144, -0.99, 0.99, 0.144, 167.643, 62.953)" fill="#3f3d56"/>
    <ellipse id="Ellisse_24" data-name="Ellisse 24" cx="2.126" cy="3.056" rx="2.126" ry="3.056" transform="matrix(0.144, -0.99, 0.99, 0.144, 142.317, 48.797)" fill="#ff6584"/>
    <ellipse id="Ellisse_25" data-name="Ellisse 25" cx="1.931" cy="1.343" rx="1.931" ry="1.343" transform="matrix(0.008, -1, 1, 0.008, 137.329, 42.891)" fill="#e6e6e6"/>
    <ellipse id="Ellisse_26" data-name="Ellisse 26" cx="1.931" cy="1.343" rx="1.931" ry="1.343" transform="matrix(0.008, -1, 1, 0.008, 134.399, 30.61)" fill="#3f3d56"/>
    <ellipse id="Ellisse_27" data-name="Ellisse 27" cx="1.931" cy="1.343" rx="1.931" ry="1.343" transform="matrix(0.008, -1, 1, 0.008, 157.182, 52.224)" fill="#e6e6e6"/>
    <ellipse id="Ellisse_28" data-name="Ellisse 28" cx="1.931" cy="1.343" rx="1.931" ry="1.343" transform="matrix(0.008, -1, 1, 0.008, 147.574, 57.021)" fill="#ff6584"/>
    <ellipse id="Ellisse_29" data-name="Ellisse 29" cx="1.931" cy="1.343" rx="1.931" ry="1.343" transform="matrix(0.008, -1, 1, 0.008, 160.949, 65.887)" fill="#3f3d56"/>
  </g>
</svg>
