<svg xmlns="http://www.w3.org/2000/svg" width="236.274" height="207" viewBox="0 0 236.274 207">
  <g id="Raggruppa_9" data-name="Raggruppa 9" transform="translate(0)">
    <path id="Tracciato_29" data-name="Tracciato 29" d="M574.539,631.4a.924.924,0,0,1-.67-1.6l.063-.252-.025-.06a2.482,2.482,0,0,0-4.578.017,22.04,22.04,0,0,0-1.937,5.517,7.345,7.345,0,0,0,.129,2.525,29.44,29.44,0,0,1-2.678-12.227,28.425,28.425,0,0,1,.176-3.17q.146-1.294.405-2.57a29.78,29.78,0,0,1,5.906-12.622,7.925,7.925,0,0,0,3.3-3.42,6.045,6.045,0,0,0,.55-1.652,7.46,7.46,0,0,1-.484-2.573c-.224-.339-.624-.508-.868-.839-1.215-1.647-2.888-1.359-3.762.879-1.866.942-1.884,2.5-.739,4.006.729.956.829,2.249,1.468,3.272-.066.084-.134.166-.2.25a29.967,29.967,0,0,0-3.128,4.956,12.46,12.46,0,0,0-.744-5.787A20.873,20.873,0,0,0,563.5,601.4a2.557,2.557,0,0,0-4.555,1.256l-.007.066q.262.148.513.314a1.254,1.254,0,0,1-.505,2.281l-.026,0a12.479,12.479,0,0,0,.329,1.865c-1.508,5.831,1.747,7.954,6.395,8.05.1.053.2.105.305.155a30.593,30.593,0,0,0-1.647,7.75,29.023,29.023,0,0,0,.021,4.685l-.008-.055a7.667,7.667,0,0,0-2.617-4.427c-2.014-1.655-4.86-2.264-7.033-3.594a1.439,1.439,0,0,0-2.2,1.4l.009.058a8.409,8.409,0,0,1,.944.455q.262.148.513.314a1.254,1.254,0,0,1-.505,2.282l-.026,0-.053.008a12.488,12.488,0,0,0,2.3,3.6c.943,5.09,4.992,5.573,9.323,4.091h0a30.584,30.584,0,0,0,2.054,6h7.339c.026-.082.05-.166.074-.247a8.343,8.343,0,0,1-2.031-.121c.545-.668,1.089-1.342,1.634-2.01a.468.468,0,0,0,.034-.039c.276-.342.555-.681.831-1.023h0a12.219,12.219,0,0,0-.358-3.112Z" transform="translate(-445.671 -431.73)" fill="#f2f2f2"/>
    <path id="Tracciato_30" data-name="Tracciato 30" d="M501.338,177.759a41.811,41.811,0,1,1,41.811-41.811A41.811,41.811,0,0,1,501.338,177.759Zm0-82.964a41.153,41.153,0,1,0,41.153,41.153,41.153,41.153,0,0,0-41.153-41.153Z" transform="translate(-383.344 -94.136)" fill="#f2f2f2"/>
    <path id="Tracciato_31" data-name="Tracciato 31" d="M579,260.428h-8.889a1.646,1.646,0,1,1,0-3.292H579a1.646,1.646,0,0,1,0,3.292Z" transform="translate(-456.414 -203.473)" fill="#e6e6e6"/>
    <path id="Tracciato_32" data-name="Tracciato 32" d="M575.336,402.464H562.363a2.4,2.4,0,0,1,0-4.8h12.973a2.4,2.4,0,0,1,0,4.8Z" transform="translate(-450.713 -297.732)" fill="#ec5939"/>
    <path id="Tracciato_33" data-name="Tracciato 33" d="M536.035,317.11H449.31A2.918,2.918,0,0,1,446.4,314.2V288.34a2.918,2.918,0,0,1,2.915-2.915h86.726a2.918,2.918,0,0,1,2.915,2.915V314.2A2.918,2.918,0,0,1,536.035,317.11Z" transform="translate(-374.536 -222.449)" fill="#e6e6e6"/>
    <path id="Tracciato_34" data-name="Tracciato 34" d="M531.616,319.153H455.283a2.918,2.918,0,0,1-2.915-2.915V294.317a2.918,2.918,0,0,1,2.915-2.915h82.793a2.918,2.918,0,0,1,2.915,2.915v15.461A9.386,9.386,0,0,1,531.616,319.153Z" transform="translate(-378.542 -226.457)" fill="#fff"/>
    <path id="Tracciato_35" data-name="Tracciato 35" d="M540.55,312.02H505.693a.752.752,0,0,1,0-1.5H540.55a.752.752,0,0,1,0,1.5Z" transform="translate(-413.807 -239.279)" fill="#ec5939"/>
    <path id="Tracciato_36" data-name="Tracciato 36" d="M558.2,321.359h-52.5a.752.752,0,0,1,0-1.5h52.5a.752.752,0,1,1,0,1.5Z" transform="translate(-413.807 -245.543)" fill="#e6e6e6"/>
    <path id="Tracciato_37" data-name="Tracciato 37" d="M558.2,332.078h-52.5a.752.752,0,0,1,0-1.5h52.5a.752.752,0,1,1,0,1.5Z" transform="translate(-413.807 -252.734)" fill="#e6e6e6"/>
    <path id="Tracciato_38" data-name="Tracciato 38" d="M558.2,342.8h-52.5a.752.752,0,0,1,0-1.5h52.5a.752.752,0,1,1,0,1.5Z" transform="translate(-413.807 -259.924)" fill="#e6e6e6"/>
    <path id="Tracciato_39" data-name="Tracciato 39" d="M558.2,353.517h-52.5a.752.752,0,0,1,0-1.5h52.5a.752.752,0,1,1,0,1.5Z" transform="translate(-413.807 -267.114)" fill="#e6e6e6"/>
    <path id="Tracciato_40" data-name="Tracciato 40" d="M568.1,588.148h-3.523L562.9,574.558h5.2Z" transform="translate(-377.578 -385.4)" fill="#a0616a"/>
    <path id="Tracciato_41" data-name="Tracciato 41" d="M785.118,709.206H774.283v-.137a4.217,4.217,0,0,1,4.217-4.217h0l1.979-1.5,3.692,1.5h.946Z" transform="translate(-594.475 -502.782)" fill="#2f2e41"/>
    <path id="Tracciato_42" data-name="Tracciato 42" d="M644.395,577.323l-3.157,1.564L633.7,567.454l4.66-2.308Z" transform="translate(-425.073 -379.086)" fill="#a0616a"/>
    <path id="Tracciato_43" data-name="Tracciato 43" d="M878.8,698.156l-9.708,4.81-.061-.123a4.217,4.217,0,0,1,1.906-5.651h0l1.107-2.224,3.975-.294.847-.42Z" transform="translate(-657.735 -496.681)" fill="#2f2e41"/>
    <path id="Tracciato_44" data-name="Tracciato 44" d="M770.7,484.609s-4.01,5.591-1.116,15.25,1.27,18.294,2.082,20.026,2.448,3.376,1.1,4.689-2.063,2.38-1,2.736,4.626,25.265,4.626,25.265l6.049.356s2.191-11.571-.15-20.909c0,0,.514-6.779-.558-8.77s-.862-.2-.789-2.694a21.942,21.942,0,0,1,.784-5.346c.356-1.423.562-15.769.562-15.769l5.889,19.037a4.741,4.741,0,0,1,.26,2.05,8.8,8.8,0,0,0,.032,2.959,2.526,2.526,0,0,1,.278,1.634c-.1,1.014,11.753,22.38,11.753,22.38l5.889-3.951-5.8-18.733a8.809,8.809,0,0,1-1.423-2.135c-.712-1.423-.739-1.5-.37-2.53a13.628,13.628,0,0,0,.37-3.631c0-.6.37-27.82-4.263-31.824S770.7,484.609,770.7,484.609Z" transform="translate(-590.62 -354.907)" fill="#2f2e41"/>
    <path id="Tracciato_45" data-name="Tracciato 45" d="M793.119,341.383l-1.206-3.431-3.292-3.292-6.073-.725-3.953,2.6-3.661,3.61-5.408,44.888s25.542,9.848,28.889,1.583Z" transform="translate(-591.284 -254.987)" fill="#ccc"/>
    <path id="Tracciato_46" data-name="Tracciato 46" d="M836.889,349.331l-3.548-3.548s-1.695,22.674-.973,24.269,1.572,1.188.653,2.05-1.907.006-.919,1.586a5,5,0,0,1,.815,2.992s5.111,32.168,8.074,32.168,4.818-.867,4.714-1.751-1.852-3.082-1.308-3.629,1.887-.134.558-1.163-1.988-.7-1.659-2.017-2.188-18.389-2.188-18.389l-.245-28.515Z" transform="translate(-632.983 -262.935)" fill="#3f3d56"/>
    <path id="Tracciato_47" data-name="Tracciato 47" d="M772.828,341.829l-4.595.65-5.462,2.085s2.495,28.143,1.974,29.085-1.446.354-.654,1.307,1.5.53.654,1.4-2.281-.232-1.4,1.307-3.361,22.721-2.219,23.858,4.084.429,4.085-.41a4.859,4.859,0,0,0-.986-2.485,1,1,0,0,1,0-1.317,3.219,3.219,0,0,0,.919-1.661,8.834,8.834,0,0,1,.814-2.026c.242-.592,6.347-40.689,6.347-40.689Z" transform="translate(-585.517 -260.282)" fill="#3f3d56"/>
    <path id="Tracciato_48" data-name="Tracciato 48" d="M691.628,376.274l2.072-1.082a80.092,80.092,0,0,0-9.007-6.152l-11.064-7.459a2.358,2.358,0,1,0-2.45,3.264l12.4,11.108Z" transform="translate(-523.921 -272.568)" fill="#a0616a"/>
    <path id="Tracciato_49" data-name="Tracciato 49" d="M729.193,360.675l.022-9.1-5.054-2.417-12.747,13.49-.988-.658h-2.3l-5.6,6.585s2.981,1.767,4.453,1.048,1.334.314,1.334.314a1.561,1.561,0,0,0,1.883.443c1.218-.488,3.523.829,3.523.829Z" transform="translate(-546.342 -265.2)" fill="#3f3d56"/>
    <ellipse id="Ellisse_3" data-name="Ellisse 3" cx="7.37" cy="7.37" rx="7.37" ry="7.37" transform="translate(187.594 62.117)" fill="#a0616a"/>
    <path id="Tracciato_50" data-name="Tracciato 50" d="M813.012,286.746a12.816,12.816,0,0,1-2.757,3.621,2.859,2.859,0,0,1-1.2.809,1.045,1.045,0,0,1-1.243-.5l-.137-.187a3.8,3.8,0,0,0,1.1-.546,1.3,1.3,0,0,0,.534-1.058.8.8,0,0,0-.813-.751c-.46.055-.872.592-1.284.385-.333-.169-.285-.654-.19-1.021.513-1.911.3-4.873-.44-4.977a5.97,5.97,0,0,1-2.061-.844,5.785,5.785,0,0,0-2.068-.832c-.053-.007-.107-.011-.164-.015a4.9,4.9,0,0,0-.2-1.162,5.728,5.728,0,0,1-.365,1.161,11.363,11.363,0,0,1-1.926.1c-.686-.08-2.658,1.519-2.673,1.3a4.9,4.9,0,0,0-.2-1.162,5.729,5.729,0,0,1-.365,1.161c-.007.015-.011.028-.018.043-.21-.511-.27-1.083-.264-.656-.44-2.716.433-4.351,2.662-5.962a3.364,3.364,0,0,1,1.535-.687,1.654,1.654,0,0,1,1.521.562,5.429,5.429,0,0,1,5.5.249c1.6,1.074,2.868,1.789,2.655,3.709a4.058,4.058,0,0,1,3.283,2.813A6.127,6.127,0,0,1,813.012,286.746Z" transform="translate(-609.151 -215.388)" fill="#2f2e41"/>
    <path id="Tracciato_51" data-name="Tracciato 51" d="M847.559,425.989l-5.288-.757c-1.788,2.99-2.424,10.949-2.424,10.949l-5.175,12.3a2.358,2.358,0,1,0,3.676,1.771l8.5-14.316Z" transform="translate(-634.29 -316.227)" fill="#a0616a"/>
    <path id="Tracciato_52" data-name="Tracciato 52" d="M838.939,365.553l2.241-3.086,4.543,2.111,3.779,14.576s2.759,1.8,2.171,3.062-.9,2.289-.293,3.015,2.381.779,1.061,1.963-.19,4.276-.19,4.276l-1.265,2.823-7.9-.329Z" transform="translate(-637.845 -274.126)" fill="#3f3d56"/>
    <path id="Tracciato_53" data-name="Tracciato 53" d="M276.157,479.519a2.434,2.434,0,0,0,.453-3.364,2.337,2.337,0,0,0-.259-.286l3.374-7.791-3.351-3.1-3.468,11.172a2.427,2.427,0,0,0-.053,2.962,2.322,2.322,0,0,0,3.254.448Z" transform="translate(-257.806 -342.886)" fill="#ffb6b6"/>
    <path id="Tracciato_54" data-name="Tracciato 54" d="M296.084,351.557s-2.5-4.748-8.291.379-12.64,30.792-12.507,31.757,1.549.583-.242,1.972-2.781.141-1.791,1.389,3.2,2.57,1.244,2.756,5.228,3.278,5.228,3.278,1.131-.271,1.478-2.88c.195-1.465-.465-2.3.7-2.542s.073-2.894.24-3.311,9.447-18.628,9.447-18.628Z" transform="translate(-258.133 -265.465)" fill="#ec5939"/>
    <path id="Tracciato_55" data-name="Tracciato 55" d="M149.917,580.734h4.195l2-16.183h-6.192Z" transform="translate(-100.56 -378.687)" fill="#ffb6b6"/>
    <path id="Tracciato_56" data-name="Tracciato 56" d="M377.595,706.929h12.9v-.163a5.022,5.022,0,0,0-5.021-5.022h0l-2.357-1.788-4.4,1.788h-1.126Z" transform="translate(-328.386 -500.505)" fill="#2f2e41"/>
    <path id="Tracciato_57" data-name="Tracciato 57" d="M60.6,563.293l3.432,2.413L74.97,553.617,69.9,550.055Z" transform="translate(-40.647 -368.964)" fill="#ffb6b6"/>
    <path id="Tracciato_58" data-name="Tracciato 58" d="M280.709,686.376l10.554,7.421.094-.133a5.022,5.022,0,0,0-1.219-7h0l-.9-2.818-4.625-1.066-.921-.648Z" transform="translate(-263.397 -488.551)" fill="#2f2e41"/>
    <path id="Tracciato_59" data-name="Tracciato 59" d="M308.826,459.752l-.349.745a26.593,26.593,0,0,0-1.987,15.7.889.889,0,0,1-.035.633c-.552.648.314,3.462.811,5.033l.448,2.779s-.742,2.581.385,2.391-.551,2.563.524,3.253l2.79,17.318-11.639,19.183,4.311,6.251,17.243-22.2.216-20.045,2.587,16.166.216,25.434,7.842-.834,2.873-24.659-2.741-34.1-4.311-14.786Z" transform="translate(-276.185 -338.214)" fill="#2f2e41"/>
    <path id="Tracciato_60" data-name="Tracciato 60" d="M322.278,328.446l6.345.3,3.034,5.241h0a9.38,9.38,0,0,1,6,5.465l1.976,4.881-2.247,28.22s-.45,1.707.379,1.458.491,1.89.491,1.89l3.057,11.758-27.8-2.417,1.543-12.458s-2.146.069-.637-1.44,2.243-1.028.793-2.812a7.462,7.462,0,0,1-1.665-3.077l-.647-8.837-1.066-12.437a11.95,11.95,0,0,1,4.515-10.41h0Z" transform="translate(-284.249 -251.306)" fill="#ec5939"/>
    <ellipse id="Ellisse_4" data-name="Ellisse 4" cx="8.046" cy="8.046" rx="8.046" ry="8.046" transform="translate(33.273 59.593)" fill="#ffb6b6"/>
    <path id="Tracciato_61" data-name="Tracciato 61" d="M332.116,285.206c2.309-.076,2.519-.686,4.828-.761.735-.024,1.6-.125,1.958-.769a1.7,1.7,0,0,0-.086-1.51,13.8,13.8,0,0,1-.711-1.4,2.444,2.444,0,0,1,2.421-3.222c.7.03,1.363.361,2.063.421.961.083,3.086-3.09,2.643-3.947-.431-.834-1.3-1.464-1.434-2.393a9.215,9.215,0,0,1,.2-1.824c.051-.909-2.254,1.141-1.832.334,1.035-1.979-8.72-4.433-10.326-1.954-.6.926-1.67.863-2.623,1.42a8.528,8.528,0,0,0-2.562,2.407,6.1,6.1,0,0,0-.457,2.526c-.014,4.023.6,7.723,3.843,10.1" transform="translate(-293.906 -210.18)" fill="#2f2e41"/>
    <path id="Tracciato_62" data-name="Tracciato 62" d="M407.7,478.5a2.434,2.434,0,0,1-.251-3.385,2.329,2.329,0,0,1,.276-.27l-2.9-7.978,3.53-2.9,2.795,11.359a2.427,2.427,0,0,1-.124,2.96,2.323,2.323,0,0,1-3.275.253Z" transform="translate(-346.652 -342.208)" fill="#ffb6b6"/>
    <path id="Tracciato_63" data-name="Tracciato 63" d="M363.3,347.63s2.776-4.59,8.254.874S382.334,380,382.143,380.951s-1.581.49.124,1.983,2.768.307,1.705,1.494-3.353,2.375-1.406,2.677-5.414,2.96-5.414,2.96-1.112-.339-1.3-2.963c-.107-1.474.6-2.266-.544-2.579s.1-2.893-.042-3.32-8.318-19.159-8.318-19.159Z" transform="translate(-318.798 -262.964)" fill="#ec5939"/>
    <path id="Tracciato_64" data-name="Tracciato 64" d="M579.638,204.991a6.579,6.579,0,1,1-1.928-4.659A6.586,6.586,0,0,1,579.638,204.991Z" transform="translate(-455.076 -164.078)" fill="#ec5939"/>
    <ellipse id="Ellisse_5" data-name="Ellisse 5" cx="2.305" cy="2.305" rx="2.305" ry="2.305" transform="translate(115.816 37.258)" fill="#fff"/>
    <path id="Tracciato_65" data-name="Tracciato 65" d="M582.007,223.807h-4.938a1.154,1.154,0,0,0-1.152,1.152,17.436,17.436,0,0,0,.461,2.927,6.58,6.58,0,0,0,6.367-.188,17.274,17.274,0,0,0,.415-2.739A1.154,1.154,0,0,0,582.007,223.807Z" transform="translate(-461.415 -181.116)" fill="#fff"/>
    <path id="Tracciato_66" data-name="Tracciato 66" d="M228.126,720.9a.391.391,0,0,0,.392.392H464.008a.392.392,0,1,0,0-.784H228.517a.391.391,0,0,0-.392.392Z" transform="translate(-228.126 -514.291)" fill="#ccc"/>
  </g>
</svg>
